<?xml version="1.0" encoding="UTF-8" standalone="no"?>
<svg
   xmlns:dc="http://purl.org/dc/elements/1.1/"
   xmlns:cc="http://creativecommons.org/ns#"
   xmlns:rdf="http://www.w3.org/1999/02/22-rdf-syntax-ns#"
   xmlns:svg="http://www.w3.org/2000/svg"
   xmlns="http://www.w3.org/2000/svg"
   id="svg26"
   version="1.1"
   viewBox="0 0 885 272"
   height="272px"
   width="885px">
  <metadata
     id="metadata30">
    <rdf:RDF>
      <cc:Work
         rdf:about="">
        <dc:format>image/svg+xml</dc:format>
        <dc:type
           rdf:resource="http://purl.org/dc/dcmitype/StillImage" />
        <dc:title>trollo-logo</dc:title>
      </cc:Work>
    </rdf:RDF>
  </metadata>
  <!-- Generator: Sketch 41 (35326) - http://www.bohemiancoding.com/sketch -->
  <title
     id="title2">trollo-logo</title>
  <desc
     id="desc4">Created with Sketch.</desc>
  <defs
     id="defs11">
    <linearGradient
       id="linearGradient-1"
       y2="100%"
       x2="50%"
       y1="0%"
       x1="50%">
      <stop
         id="stop6"
         offset="0%"
         stop-color="#0079BF" />
      <stop
         id="stop8"
         offset="100%"
         stop-color="#0079BF" />
    </linearGradient>
    <clipPath
       id="clipPath871"
       clipPathUnits="userSpaceOnUse">
      <rect
         y="-180.5625"
         x="662.5"
         height="157.8125"
         width="187.5"
         id="rect873"
         style="opacity:0.17600002;fill:#ffffff;fill-opacity:1;stroke:#0079bf;stroke-width:21.20000076;stroke-miterlimit:4;stroke-dasharray:none;stroke-opacity:1;paint-order:stroke fill markers" />
    </clipPath>
  </defs>
  <g
     fill-rule="evenodd"
     fill="none"
     stroke-width="1"
     stroke="none"
     id="Page-1">
    <g
       transform="translate(-509.000000, -485.000000)"
       id="Logos">
      <g
         transform="translate(-9.000000, 1.000000)"
         id="Group">
        <g
           transform="translate(468.000000, 0.000000)"
           id="Trello-Logo">
          <g
             transform="translate(0.000000, 420.000000)"
             id="Trello-Logo---Blue---Flat">
            <g
               transform="translate(50.000000, 64.000000)"
               id="Logo">
              <g
                 id="g18"
                 transform="translate(50.000000, 1.000000)">
                <path
                   style="fill:#000000;fill-opacity:1"
                   id="Type"
                   d="m 492.39043,147.90386 c 8.75488,-23.72849 76.71211,-64.331826 63.37508,-28.55137 0.25276,8.04907 -30.43019,50.15482 -23.92391,103.04111 5.7024,6.0192 14.5728,11.4048 26.2944,13.9392 1.9008,0.3168 3.8016,0.6336 5.7024,0.6336 13.4111,0 26.31755,-10.90046 36.26967,-21.70635 1.15227,2.35804 2.82673,4.60893 5.23113,7.13355 5.7024,6.0192 14.5728,11.4048 26.2944,13.9392 1.9008,0.3168 3.8016,0.6336 5.7024,0.6336 15.70977,0 30.72706,-14.95738 41.11436,-27.19906 3.46192,7.16051 13.13618,14.24001 24.78004,19.91266 3.168,1.584 6.9696,2.5344 10.4544,2.5344 13.6224,0 23.4432,-11.088 31.0464,-19.3248 19.6416,-21.5424 30.4128,-48.1536 38.6496,-81.7344 0.6336,-2.5344 1.584,-3.4848 2.8512,-3.4848 3.168,0 7.2864,0 11.7216,-0.6336 8.5536,-1.2672 15.2064,-4.1184 23.1264,-5.3856 4.752,-0.9504 4.1184,-2.5344 8.5536,-4.1184 3.168,-1.2672 5.7024,-2.5344 5.7024,-5.7024 0,-5.3856 -9.8208,-11.088 -24.7104,-11.088 -11.7216,0 -18.6912,0.9504 -23.4432,0.9504 -7.2864,0 -9.1872,-2.2176 -13.9392,-14.5728 0,0 4.752,12.3552 0,0 -0.9504,-2.5344 -1.9008,-3.8016 -4.752,-6.336 -6.6528,-5.7024 -14.8896,-7.6032 -21.5424,-7.6032 -15.84,0 -29.4624,16.1568 -38.9664,29.7792 -2.2176,3.168 -5.3856,5.7024 -7.6032,9.1872 -13.05001,19.57502 -25.54469,41.64909 -27.08566,65.44232 -12.77067,5.20363 -22.84826,23.18136 -38.17514,33.39928 -0.9504,0.6336 -1.9008,0.9504 -2.5344,0.9504 -1.2672,0 -2.8512,-1.2672 -2.8512,-6.9696 0,-19.6416 6.336,-29.1456 11.7216,-43.0848 18.6912,-48.4704 50.688,-89.9712 79.2,-135.2736 2.2176,-3.4848 3.4848,-7.2864 3.4848,-11.4048 0,-3.4848 -1.2672,-6.336 -2.8512,-9.8208 C 720.0208,2.5344 714.3184,0 707.9824,0 c -3.4848,0 -6.6528,0.3168 -10.7712,0.3168 -14.8896,0 -18.0576,21.8592 -21.5424,27.5616 -23.76,40.2336 -51.0048,89.9712 -64.944,125.136 -3.0567,7.88306 -6.35849,15.76613 -8.86817,23.85663 -13.77475,3.9888 -24.09418,23.35667 -40.23583,34.11777 -0.9504,0.6336 -1.9008,0.9504 -2.5344,0.9504 -1.2672,0 -2.8512,-1.2672 -2.8512,-6.9696 0,-19.6416 6.336,-29.1456 11.7216,-43.0848 18.6912,-48.4704 50.688,-89.9712 79.2,-135.2736 2.2176,-3.4848 3.4848,-7.2864 3.4848,-11.4048 0,-3.4848 -1.2672,-6.336 -2.8512,-9.8208 C 646.5232,2.5344 640.8208,0 634.4848,0 631,0 627.832,0.3168 623.7136,0.3168 c -14.8896,0 -18.0576,21.8592 -21.5424,27.5616 -21.02562,43.3586 -23.66105,45.049325 -44.24087,85.68287 -1.10816,2.85789 -14.50009,-1.61131 -15.62325,1.25647 -0.34684,0.18526 -17.16279,7.66783 -17.52527,7.88532 -16.1568,9.504 8.61448,-24.25269 -11.02712,-12.84789 -50.52689,101.1512 -92.12004,166.93852 -66.87538,-4.71648 C 440.217,99.38685 430.8199,96.9408 421.912,96.9408 c -10.4544,0 -30.096,12.9888 -40.2336,20.592 -1.584,1.2672 -2.5344,1.9008 -3.168,1.9008 -0.3168,0 -0.6336,-0.3168 -0.6336,-0.9504 0,-0.3168 0.6336,-3.168 0.6336,-8.2368 0,-4.4352 -0.9504,-10.1376 -5.0688,-17.1072 -0.9504,-1.584 -6.6528,-5.0688 -13.6224,-5.0688 -8.5536,0 -16.4736,4.1184 -16.4736,8.5536 0,3.168 2.8512,4.4352 2.8512,7.2864 0,1.584 -1.2672,8.8704 -3.168,15.84 -5.3856,20.2752 -12.0384,40.2336 -19.008,60.192 -3.8016,11.088 -16.4736,20.9088 -16.4736,32.9472 0,3.8016 2.5344,8.8704 6.0192,12.672 5.7024,6.336 9.1872,8.5536 14.256,8.5536 2.2176,0 4.752,-0.6336 6.9696,-2.5344 4.752,-4.1184 7.2864,-8.2368 8.5536,-13.9392 8.2368,-37.3824 31.9968,-62.7264 58.2912,-79.5168 8.8704,-5.7024 20.9088,-11.7216 22.4928,-11.7216 1.62424,0 4.1645,0.74947 6.72419,1.47991 -7.35027,11.98886 -13.30585,24.63228 -17.17859,38.12009 -1.2672,4.4352 -1.9008,8.5536 -1.9008,12.9888 0,7.2864 -0.62571,15.71824 1.90869,23.00464 3.4848,10.1376 6.42507,12.10266 19.31691,22.29776 14.5728,8.43184 30.55148,19.45558 49.72295,-16.45219 M 268.264,69.696 c 7.92,0 12.3552,-0.6336 13.3056,-0.6336 0.9504,0 1.584,0.3168 1.584,1.2672 0,0.6336 -0.3168,1.584 -2.5344,6.336 -19.3248,41.5008 -32.6304,83.6352 -44.352,130.2048 -0.3168,1.2672 -1.2672,6.0192 -1.2672,10.7712 0,4.4352 1.2672,9.1872 5.7024,11.7216 8.5536,5.0688 15.5232,7.2864 20.2752,7.2864 6.9696,0 10.4544,-4.4352 10.4544,-11.7216 0,-6.336 0.3168,-12.9888 1.2672,-18.0576 8.8704,-46.5696 22.176,-83.0016 42.768,-121.0176 9.8208,-18.0576 11.088,-19.008 11.088,-20.592 0,-0.6336 -0.3168,-1.584 -0.9504,-2.5344 12.672,-2.8512 27.8784,-4.752 41.8176,-4.752 1.584,0 7.92,2.2176 8.8704,3.168 2.2176,2.2176 4.4352,4.4352 8.2368,4.4352 3.168,0 8.5536,-2.2176 10.4544,-3.4848 4.4352,-3.168 6.6528,-6.6528 6.6528,-12.3552 0,-5.3856 -19.9584,-18.6912 -33.8976,-18.6912 -17.1072,0 -32.6304,2.2176 -47.2032,5.0688 -6.336,1.2672 -29.1456,4.752 -45.6192,4.752 -15.84,0 -14.8896,-2.2176 -21.5424,-2.2176 -3.8016,0 -5.7024,1.9008 -7.2864,3.4848 -1.584,1.584 -2.5344,7.92 -2.5344,13.6224 0,2.8512 0,5.0688 1.584,6.9696 4.752,5.7024 13.9392,6.9696 23.1264,6.9696 0,0 -9.1872,0 0,0 z m 478.368,33.8976 c 0.3168,0 0.6336,0.3168 0.9504,0.9504 0.3168,0.9504 0.9504,1.9008 2.5344,3.168 1.2672,0.9504 1.2672,5.3856 1.2672,8.8704 0,30.7296 -17.424,56.0736 -34.5312,81.7344 -3.8016,5.7024 -6.0192,6.6528 -7.92,6.6528 -1.584,0 -4.1184,-4.1184 -5.0688,-6.6528 -1.2672,-3.4848 -1.584,-7.6032 -1.584,-9.1872 0,-24.7104 23.4432,-61.4592 38.9664,-81.7344 2.5344,-3.4848 4.4352,-3.8016 5.3856,-3.8016 0,0 -0.9504,0 0,0 z" />
                <g
                   style="stroke:#0079bf;stroke-opacity:1"
                   transform="translate(0.000000, 35.000000)"
                   id="Mark">
                  <path
                     id="Board"
                     transform="translate(-50,-36)"
                     d="M 75 36 C 61.15 36 50 47.15 50 61 L 50 211 C 50 224.85 61.15 236 75 236 L 225 236 C 238.85 236 250 224.85 250 211 L 250 61 C 250 47.15 238.85 36 225 36 L 75 36 z M 88 62 L 125 62 C 131.648 62 137 67.352 137 74 L 137 187.5 C 137 194.148 131.648 199.5 125 199.5 L 88 199.5 C 81.352 199.5 76 194.148 76 187.5 L 76 74 C 76 67.352 81.352 62 88 62 z M 175 62 L 212 62 C 218.648 62 224 67.352 224 74 L 224 137.5 C 224 144.148 218.648 149.5 212 149.5 L 175 149.5 C 168.352 149.5 163 144.148 163 137.5 L 163 74 C 163 67.352 168.352 62 175 62 z "
                     style="stroke:#000000;stroke-opacity:1;fill:#000000" />
                </g>
                <path
                   transform="translate(-248.12203,251.0182)"
                   id="Type-7"
                   d="m 660.78179,-73.018681 c -15.28112,7.518801 -23.40443,23.681634 -37.33119,32.97705 -9.41987,-0.727206 -6.67352,-12.081525 -5.03674,-18.275728 3.16588,-19.697725 17.68471,-37.141097 14.45672,-57.884661 -1.39542,-14.73976 -4.77604,-31.15533 4.12688,-44.33923 11.99559,-21.11876 32.40026,-35.31915 51.27312,-49.78326 7.1601,-5.23872 15.32901,-9.49165 21.37058,-16.01573 4.81371,-8.53074 1.01978,-22.83823 -9.98027,-23.69701 -9.61863,-1.33377 -22.24336,-1.76143 -27.88382,7.82791 -6.10861,10.5898 -8.90333,22.86916 -16.32465,32.74613 -25.02661,43.66424 -49.80266,87.92419 -66.10754,135.726039 -17.24983,6.60938 -25.08327,25.374058 -40.79907,34.206325 -9.68389,-4.894251 -3.58047,-16.978261 -2.05112,-24.892456 5.78345,-20.439804 15.44181,-39.498398 24.6591,-58.543948 19.39651,-37.0314 45.1509,-70.22211 66.17198,-106.25689 3.50423,-8.93311 -2.70687,-21.79729 -13.21528,-21.13053 -9.31433,-0.927 -21.55567,-0.7244 -26.31636,8.9498 -6.0094,10.86726 -8.9266,23.17881 -15.54776,33.75025 -19.76251,39.59505 -42.11534,77.85351 -61.19672,117.794788 -5.84216,5.771951 -13.37957,9.471088 -19.22347,15.290042 -9.92401,8.435824 -19.55604,17.425097 -30.96673,23.862389 -6.56324,6.598751 -18.11422,11.120087 -26.29524,4.734201 -12.99568,-13.630454 -14.11937,-33.500924 -15.22912,-51.277969 -0.95837,-15.300901 0.009,-30.859581 4.07556,-45.688471 -3.37243,-10.24073 -16.05197,-10.41361 -25.01142,-10.33983 -12.35761,0.86245 -22.08892,9.33068 -32.46253,15.13505 -3.23895,7.62398 -14.75251,4.92334 -9.9428,-3.68583 -0.19095,-8.66075 -4.86608,-19.14524 -14.49202,-20.23505 -7.21449,-1.94532 -18.58869,0.20386 -19.40367,9.14348 2.42715,9.38707 -0.12807,19.05116 -3.21356,28.00193 -6.16293,20.89128 -11.96949,42.06292 -21.18012,61.853213 -5.50071,8.618267 -14.32974,17.408399 -12.02832,28.561867 3.0745,9.251664 11.61224,19.108233 22.25363,17.48014 10.35253,-3.401547 13.2719,-15.209784 15.23429,-24.668678 10.09521,-35.007927 37.76733,-62.809412 69.89886,-78.708142 5.91578,-9.39031 20.01873,1.56011 9.4389,8.16859 -9.97535,17.690553 -17.04352,39.172788 -10.44237,59.284355 3.91594,14.730762 14.92632,28.077147 30.02679,32.023529 7.72133,3.480742 18.4487,9.859139 25.90922,2.648011 7.61435,-7.114149 12.6223,-16.466292 19.83272,-23.95969 11.38344,-13.850237 23.04481,-27.562921 36.32064,-39.656876 10.61732,4.099275 -1.45607,16.611337 2.57044,24.357625 -0.23627,9.843655 -2.56816,21.128283 3.56804,29.682322 8.26752,9.415285 21.29421,14.330322 33.67615,13.895688 12.24843,-1.336722 22.49635,-9.401065 30.43126,-18.32808 10.25711,-1.263035 12.96512,13.400907 23.05078,14.36289 5.89048,3.222545 15.38123,6.152843 19.83928,-0.758764 2.09405,-6.536636 3.49807,-13.423352 6.74332,-19.607012 3.41059,-6.805047 7.037,-13.675202 11.70958,-19.654037 8.36051,-8.526362 19.15079,0.952566 18.76973,10.76412 1.64574,10.112778 9.49274,17.171847 18.04106,21.88772 7.76238,4.942326 17.28272,9.040583 26.46779,5.535003 12.36293,-4.05744 20.56084,-14.977669 28.74767,-24.424564 15.77476,-20.16371 25.29883,-44.45099 31.59598,-69.06894 -0.17111,-12.35966 15.4483,-9.89806 23.68933,-11.76289 9.33349,-2.77857 20.95101,-3.39279 27.81581,-10.93115 2.86913,-10.68934 -11.2392,-13.93232 -19.33959,-13.84299 -10.33885,-0.718 -20.80346,1.80916 -31.04705,0.17099 -9.51475,-4.22794 -8.04331,-17.81802 -17.33183,-22.44848 -13.64948,-9.44715 -33.84136,-5.37693 -43.79051,7.59539 -16.02451,17.47084 -30.31275,36.93905 -40.02121,58.66427 -4.55824,10.377662 -7.82346,21.432666 -8.55313,32.785779 z M 255.75225,-180.9122 c 9.63431,-5.95523 18.5639,6.82674 9.39624,13.45923 -18.90988,42.64092 -33.32431,87.326977 -43.04546,132.922098 -0.16712,9.742791 8.71887,17.107571 17.60352,19.064441 9.97651,5.7764291 22.90733,-3.729576 19.39065,-15.093838 0.85372,-20.611861 7.11288,-40.498178 12.56415,-60.246654 9.62453,-31.138737 23.14204,-61.036307 39.75213,-89.064487 0.37813,-8.2796 9.68712,-10.74115 16.54124,-10.97144 11.45926,-0.13407 24.11951,-4.94024 34.71807,1.43542 7.89369,6.74073 23.02345,4.37934 25.67119,-6.57958 1.73019,-10.22845 -8.14433,-15.86194 -16.09632,-19.21379 -18.52498,-8.19553 -39.01724,-3.05057 -58.14729,-0.38984 -21.30145,3.50401 -42.95921,7.72212 -64.60944,4.97147 -8.7,-5.35464 -21.22203,3.66832 -19.09947,13.59039 -0.36718,10.84489 11.37311,17.10842 21.04424,16.14392 1.43883,-0.0109 2.87759,-0.0524 4.31655,-0.0273 z m 478.368,33.8976 c 7.73484,7.52087 4.47819,19.09064 3.17549,28.44404 -5.03172,26.481667 -21.19377,48.772728 -36.0667,70.579941 -9.18051,3.966115 -12.77632,-8.532807 -11.65876,-15.489009 3.45182,-27.246875 18.95287,-50.690462 34.07864,-72.859802 2.84412,-4.08652 5.74188,-8.58385 10.47133,-10.67517 z"
                   clip-path="url(#clipPath871)"
                   style="fill:#000000" />
              </g>
            </g>
          </g>
        </g>
      </g>
    </g>
  </g>
</svg>
