<?xml version="1.0" encoding="UTF-8" standalone="no"?>
<svg
   xmlns:dc="http://purl.org/dc/elements/1.1/"
   xmlns:cc="http://creativecommons.org/ns#"
   xmlns:rdf="http://www.w3.org/1999/02/22-rdf-syntax-ns#"
   xmlns:svg="http://www.w3.org/2000/svg"
   xmlns="http://www.w3.org/2000/svg"
   xmlns:sodipodi="http://sodipodi.sourceforge.net/DTD/sodipodi-0.dtd"
   xmlns:inkscape="http://www.inkscape.org/namespaces/inkscape"
   id="svg26"
   version="1.1"
   viewBox="0 0 885 272"
   height="272px"
   width="885px"
   sodipodi:docname="trollo-logo-black.svg"
   inkscape:version="0.92.3 (2405546, 2018-03-11)">
  <sodipodi:namedview
     pagecolor="#ffffff"
     bordercolor="#666666"
     borderopacity="1"
     objecttolerance="10"
     gridtolerance="10"
     guidetolerance="10"
     inkscape:pageopacity="0"
     inkscape:pageshadow="2"
     inkscape:window-width="1853"
     inkscape:window-height="1025"
     id="namedview23"
     showgrid="false"
     inkscape:zoom="1.5457627"
     inkscape:cx="467.81895"
     inkscape:cy="111.88447"
     inkscape:window-x="67"
     inkscape:window-y="27"
     inkscape:window-maximized="1"
     inkscape:current-layer="svg26" />
  <metadata
     id="metadata30">
    <rdf:RDF>
      <cc:Work
         rdf:about="">
        <dc:format>image/svg+xml</dc:format>
        <dc:type
           rdf:resource="http://purl.org/dc/dcmitype/StillImage" />
        <dc:title>trollo-logo</dc:title>
      </cc:Work>
    </rdf:RDF>
  </metadata>
  <!-- Generator: Sketch 41 (35326) - http://www.bohemiancoding.com/sketch -->
  <title
     id="title2">trollo-logo</title>
  <desc
     id="desc4">Created with Sketch.</desc>
  <defs
     id="defs11">
    <linearGradient
       id="linearGradient-1"
       y2="100%"
       x2="50%"
       y1="0%"
       x1="50%">
      <stop
         id="stop6"
         offset="0%"
         stop-color="#0079BF" />
      <stop
         id="stop8"
         offset="100%"
         stop-color="#0079BF" />
    </linearGradient>
    <clipPath
       id="clipPath871"
       clipPathUnits="userSpaceOnUse">
      <rect
         y="-180.5625"
         x="662.5"
         height="157.8125"
         width="187.5"
         id="rect873"
         style="opacity:0.17600002;fill:#ffffff;fill-opacity:1;stroke:#0079bf;stroke-width:21.20000076;stroke-miterlimit:4;stroke-dasharray:none;stroke-opacity:1;paint-order:stroke fill markers" />
    </clipPath>
  </defs>
  <g
     fill-rule="evenodd"
     fill="none"
     stroke-width="1"
     stroke="none"
     id="Page-1">
    <g
       transform="translate(-509.000000, -485.000000)"
       id="Logos">
      <g
         transform="translate(-9.000000, 1.000000)"
         id="Group">
        <g
           transform="translate(468.000000, 0.000000)"
           id="Trello-Logo">
          <g
             transform="translate(0.000000, 420.000000)"
             id="Trello-Logo---Blue---Flat">
            <g
               transform="translate(50.000000, 64.000000)"
               id="Logo">
              <g
                 id="g18"
                 transform="translate(50.000000, 1.000000)">
                <path
                   style="fill:#000000;fill-opacity:1"
                   id="Type"
                   d="m 492.39043,147.90386 c 8.75488,-23.72849 76.71211,-64.331826 63.37508,-28.55137 0.25276,8.04907 -30.43019,50.15482 -23.92391,103.04111 5.7024,6.0192 14.5728,11.4048 26.2944,13.9392 1.9008,0.3168 3.8016,0.6336 5.7024,0.6336 13.4111,0 26.31755,-10.90046 36.26967,-21.70635 1.15227,2.35804 2.82673,4.60893 5.23113,7.13355 5.7024,6.0192 14.5728,11.4048 26.2944,13.9392 1.9008,0.3168 3.8016,0.6336 5.7024,0.6336 15.70977,0 30.72706,-14.95738 41.11436,-27.19906 3.46192,7.16051 13.13618,14.24001 24.78004,19.91266 3.168,1.584 6.9696,2.5344 10.4544,2.5344 13.6224,0 23.4432,-11.088 31.0464,-19.3248 19.6416,-21.5424 30.4128,-48.1536 38.6496,-81.7344 0.6336,-2.5344 1.584,-3.4848 2.8512,-3.4848 3.168,0 7.2864,0 11.7216,-0.6336 8.5536,-1.2672 15.2064,-4.1184 23.1264,-5.3856 4.752,-0.9504 4.1184,-2.5344 8.5536,-4.1184 3.168,-1.2672 5.7024,-2.5344 5.7024,-5.7024 0,-5.3856 -9.8208,-11.088 -24.7104,-11.088 -11.7216,0 -18.6912,0.9504 -23.4432,0.9504 -7.2864,0 -9.1872,-2.2176 -13.9392,-14.5728 0,0 4.752,12.3552 0,0 -0.9504,-2.5344 -1.9008,-3.8016 -4.752,-6.336 -6.6528,-5.7024 -14.8896,-7.6032 -21.5424,-7.6032 -15.84,0 -29.4624,16.1568 -38.9664,29.7792 -2.2176,3.168 -5.3856,5.7024 -7.6032,9.1872 -13.05001,19.57502 -25.54469,41.64909 -27.08566,65.44232 -12.77067,5.20363 -22.84826,23.18136 -38.17514,33.39928 -0.9504,0.6336 -1.9008,0.9504 -2.5344,0.9504 -1.2672,0 -2.8512,-1.2672 -2.8512,-6.9696 0,-19.6416 6.336,-29.1456 11.7216,-43.0848 18.6912,-48.4704 50.688,-89.9712 79.2,-135.2736 2.2176,-3.4848 3.4848,-7.2864 3.4848,-11.4048 0,-3.4848 -1.2672,-6.336 -2.8512,-9.8208 C 720.0208,2.5344 714.3184,0 707.9824,0 c -3.4848,0 -6.6528,0.3168 -10.7712,0.3168 -14.8896,0 -18.0576,21.8592 -21.5424,27.5616 -23.76,40.2336 -51.0048,89.9712 -64.944,125.136 -3.0567,7.88306 -6.35849,15.76613 -8.86817,23.85663 -13.77475,3.9888 -24.09418,23.35667 -40.23583,34.11777 -0.9504,0.6336 -1.9008,0.9504 -2.5344,0.9504 -1.2672,0 -2.8512,-1.2672 -2.8512,-6.9696 0,-19.6416 6.336,-29.1456 11.7216,-43.0848 18.6912,-48.4704 50.688,-89.9712 79.2,-135.2736 2.2176,-3.4848 3.4848,-7.2864 3.4848,-11.4048 0,-3.4848 -1.2672,-6.336 -2.8512,-9.8208 C 646.5232,2.5344 640.8208,0 634.4848,0 631,0 627.832,0.3168 623.7136,0.3168 c -14.8896,0 -18.0576,21.8592 -21.5424,27.5616 -21.02562,43.3586 -23.66105,45.049325 -44.24087,85.68287 -1.10816,2.85789 -14.50009,-1.61131 -15.62325,1.25647 -0.34684,0.18526 -17.16279,7.66783 -17.52527,7.88532 -16.1568,9.504 8.61448,-24.25269 -11.02712,-12.84789 -50.52689,101.1512 -92.12004,166.93852 -66.87538,-4.71648 C 440.217,99.38685 430.8199,96.9408 421.912,96.9408 c -10.4544,0 -30.096,12.9888 -40.2336,20.592 -1.584,1.2672 -2.5344,1.9008 -3.168,1.9008 -0.3168,0 -0.6336,-0.3168 -0.6336,-0.9504 0,-0.3168 0.6336,-3.168 0.6336,-8.2368 0,-4.4352 -0.9504,-10.1376 -5.0688,-17.1072 -0.9504,-1.584 -6.6528,-5.0688 -13.6224,-5.0688 -8.5536,0 -16.4736,4.1184 -16.4736,8.5536 0,3.168 2.8512,4.4352 2.8512,7.2864 0,1.584 -1.2672,8.8704 -3.168,15.84 -5.3856,20.2752 -12.0384,40.2336 -19.008,60.192 -3.8016,11.088 -16.4736,20.9088 -16.4736,32.9472 0,3.8016 2.5344,8.8704 6.0192,12.672 5.7024,6.336 9.1872,8.5536 14.256,8.5536 2.2176,0 4.752,-0.6336 6.9696,-2.5344 4.752,-4.1184 7.2864,-8.2368 8.5536,-13.9392 8.2368,-37.3824 31.9968,-62.7264 58.2912,-79.5168 8.8704,-5.7024 20.9088,-11.7216 22.4928,-11.7216 1.62424,0 4.1645,0.74947 6.72419,1.47991 -7.35027,11.98886 -13.30585,24.63228 -17.17859,38.12009 -1.2672,4.4352 -1.9008,8.5536 -1.9008,12.9888 0,7.2864 -0.62571,15.71824 1.90869,23.00464 3.4848,10.1376 6.42507,12.10266 19.31691,22.29776 14.5728,8.43184 30.55148,19.45558 49.72295,-16.45219 M 268.264,69.696 c 7.92,0 12.3552,-0.6336 13.3056,-0.6336 0.9504,0 1.584,0.3168 1.584,1.2672 0,0.6336 -0.3168,1.584 -2.5344,6.336 -19.3248,41.5008 -32.6304,83.6352 -44.352,130.2048 -0.3168,1.2672 -1.2672,6.0192 -1.2672,10.7712 0,4.4352 1.2672,9.1872 5.7024,11.7216 8.5536,5.0688 15.5232,7.2864 20.2752,7.2864 6.9696,0 10.4544,-4.4352 10.4544,-11.7216 0,-6.336 0.3168,-12.9888 1.2672,-18.0576 8.8704,-46.5696 22.176,-83.0016 42.768,-121.0176 9.8208,-18.0576 11.088,-19.008 11.088,-20.592 0,-0.6336 -0.3168,-1.584 -0.9504,-2.5344 12.672,-2.8512 27.8784,-4.752 41.8176,-4.752 1.584,0 7.92,2.2176 8.8704,3.168 2.2176,2.2176 4.4352,4.4352 8.2368,4.4352 3.168,0 8.5536,-2.2176 10.4544,-3.4848 4.4352,-3.168 6.6528,-6.6528 6.6528,-12.3552 0,-5.3856 -19.9584,-18.6912 -33.8976,-18.6912 -17.1072,0 -32.6304,2.2176 -47.2032,5.0688 -6.336,1.2672 -29.1456,4.752 -45.6192,4.752 -15.84,0 -14.8896,-2.2176 -21.5424,-2.2176 -3.8016,0 -5.7024,1.9008 -7.2864,3.4848 -1.584,1.584 -2.5344,7.92 -2.5344,13.6224 0,2.8512 0,5.0688 1.584,6.9696 4.752,5.7024 13.9392,6.9696 23.1264,6.9696 0,0 -9.1872,0 0,0 z m 478.368,33.8976 c 0.3168,0 0.6336,0.3168 0.9504,0.9504 0.3168,0.9504 0.9504,1.9008 2.5344,3.168 1.2672,0.9504 1.2672,5.3856 1.2672,8.8704 0,30.7296 -17.424,56.0736 -34.5312,81.7344 -3.8016,5.7024 -6.0192,6.6528 -7.92,6.6528 -1.584,0 -4.1184,-4.1184 -5.0688,-6.6528 -1.2672,-3.4848 -1.584,-7.6032 -1.584,-9.1872 0,-24.7104 23.4432,-61.4592 38.9664,-81.7344 2.5344,-3.4848 4.4352,-3.8016 5.3856,-3.8016 0,0 -0.9504,0 0,0 z" />
                <g
                   style="stroke:#0079bf;stroke-opacity:1"
                   transform="translate(0.000000, 35.000000)"
                   id="Mark">
                  <path
                     id="Board"
                     transform="translate(-50,-36)"
                     d="M 75 36 C 61.15 36 50 47.15 50 61 L 50 211 C 50 224.85 61.15 236 75 236 L 225 236 C 238.85 236 250 224.85 250 211 L 250 61 C 250 47.15 238.85 36 225 36 L 75 36 z M 88 62 L 125 62 C 131.648 62 137 67.352 137 74 L 137 187.5 C 137 194.148 131.648 199.5 125 199.5 L 88 199.5 C 81.352 199.5 76 194.148 76 187.5 L 76 74 C 76 67.352 81.352 62 88 62 z M 175 62 L 212 62 C 218.648 62 224 67.352 224 74 L 224 137.5 C 224 144.148 218.648 149.5 212 149.5 L 175 149.5 C 168.352 149.5 163 144.148 163 137.5 L 163 74 C 163 67.352 168.352 62 175 62 z "
                     style="stroke:#000000;stroke-opacity:1;fill:#000000" />
                </g>
                <path
                   transform="translate(-248.12203,251.0182)"
                   id="Type-7"
                   d="m 660.78179,-73.018681 c -15.28112,7.518801 -23.40443,23.681634 -37.33119,32.97705 -9.41987,-0.727206 -6.67352,-12.081525 -5.03674,-18.275728 3.16588,-19.697725 17.68471,-37.141097 14.45672,-57.884661 -1.39542,-14.73976 -4.77604,-31.15533 4.12688,-44.33923 11.99559,-21.11876 32.40026,-35.31915 51.27312,-49.78326 7.1601,-5.23872 15.32901,-9.49165 21.37058,-16.01573 4.81371,-8.53074 1.01978,-22.83823 -9.98027,-23.69701 -9.61863,-1.33377 -22.24336,-1.76143 -27.88382,7.82791 -6.10861,10.5898 -8.90333,22.86916 -16.32465,32.74613 -25.02661,43.66424 -49.80266,87.92419 -66.10754,135.726039 -17.24983,6.60938 -25.08327,25.374058 -40.79907,34.206325 -9.68389,-4.894251 -3.58047,-16.978261 -2.05112,-24.892456 5.78345,-20.439804 15.44181,-39.498398 24.6591,-58.543948 19.39651,-37.0314 45.1509,-70.22211 66.17198,-106.25689 3.50423,-8.93311 -2.70687,-21.79729 -13.21528,-21.13053 -9.31433,-0.927 -21.55567,-0.7244 -26.31636,8.9498 -6.0094,10.86726 -8.9266,23.17881 -15.54776,33.75025 -19.76251,39.59505 -42.11534,77.85351 -61.19672,117.794788 -5.84216,5.771951 -13.37957,9.471088 -19.22347,15.290042 -9.92401,8.435824 -19.55604,17.425097 -30.96673,23.862389 -6.56324,6.598751 -18.11422,11.120087 -26.29524,4.734201 -12.99568,-13.630454 -14.11937,-33.500924 -15.22912,-51.277969 -0.95837,-15.300901 0.009,-30.859581 4.07556,-45.688471 -3.37243,-10.24073 -16.05197,-10.41361 -25.01142,-10.33983 -12.35761,0.86245 -22.08892,9.33068 -32.46253,15.13505 -3.23895,7.62398 -14.75251,4.92334 -9.9428,-3.68583 -0.19095,-8.66075 -4.86608,-19.14524 -14.49202,-20.23505 -7.21449,-1.94532 -18.58869,0.20386 -19.40367,9.14348 2.42715,9.38707 -0.12807,19.05116 -3.21356,28.00193 -6.16293,20.89128 -11.96949,42.06292 -21.18012,61.853213 -5.50071,8.618267 -14.32974,17.408399 -12.02832,28.561867 3.0745,9.251664 11.61224,19.108233 22.25363,17.48014 10.35253,-3.401547 13.2719,-15.209784 15.23429,-24.668678 10.09521,-35.007927 37.76733,-62.809412 69.89886,-78.708142 5.91578,-9.39031 20.01873,1.56011 9.4389,8.16859 -9.97535,17.690553 -17.04352,39.172788 -10.44237,59.284355 3.91594,14.730762 14.92632,28.077147 30.02679,32.023529 7.72133,3.480742 18.4487,9.859139 25.90922,2.648011 7.61435,-7.114149 12.6223,-16.466292 19.83272,-23.95969 11.38344,-13.850237 23.04481,-27.562921 36.32064,-39.656876 10.61732,4.099275 -1.45607,16.611337 2.57044,24.357625 -0.23627,9.843655 -2.56816,21.128283 3.56804,29.682322 8.26752,9.415285 21.29421,14.330322 33.67615,13.895688 12.24843,-1.336722 22.49635,-9.401065 30.43126,-18.32808 10.25711,-1.263035 12.96512,13.400907 23.05078,14.36289 5.89048,3.222545 15.38123,6.152843 19.83928,-0.758764 2.09405,-6.536636 3.49807,-13.423352 6.74332,-19.607012 3.41059,-6.805047 7.037,-13.675202 11.70958,-19.654037 8.36051,-8.526362 19.15079,0.952566 18.76973,10.76412 1.64574,10.112778 9.49274,17.171847 18.04106,21.88772 7.76238,4.942326 17.28272,9.040583 26.46779,5.535003 12.36293,-4.05744 20.56084,-14.977669 28.74767,-24.424564 15.77476,-20.16371 25.29883,-44.45099 31.59598,-69.06894 -0.17111,-12.35966 15.4483,-9.89806 23.68933,-11.76289 9.33349,-2.77857 20.95101,-3.39279 27.81581,-10.93115 2.86913,-10.68934 -11.2392,-13.93232 -19.33959,-13.84299 -10.33885,-0.718 -20.80346,1.80916 -31.04705,0.17099 -9.51475,-4.22794 -8.04331,-17.81802 -17.33183,-22.44848 -13.64948,-9.44715 -33.84136,-5.37693 -43.79051,7.59539 -16.02451,17.47084 -30.31275,36.93905 -40.02121,58.66427 -4.55824,10.377662 -7.82346,21.432666 -8.55313,32.785779 z M 255.75225,-180.9122 c 9.63431,-5.95523 18.5639,6.82674 9.39624,13.45923 -18.90988,42.64092 -33.32431,87.326977 -43.04546,132.922098 -0.16712,9.742791 8.71887,17.107571 17.60352,19.064441 9.97651,5.7764291 22.90733,-3.729576 19.39065,-15.093838 0.85372,-20.611861 7.11288,-40.498178 12.56415,-60.246654 9.62453,-31.138737 23.14204,-61.036307 39.75213,-89.064487 0.37813,-8.2796 9.68712,-10.74115 16.54124,-10.97144 11.45926,-0.13407 24.11951,-4.94024 34.71807,1.43542 7.89369,6.74073 23.02345,4.37934 25.67119,-6.57958 1.73019,-10.22845 -8.14433,-15.86194 -16.09632,-19.21379 -18.52498,-8.19553 -39.01724,-3.05057 -58.14729,-0.38984 -21.30145,3.50401 -42.95921,7.72212 -64.60944,4.97147 -8.7,-5.35464 -21.22203,3.66832 -19.09947,13.59039 -0.36718,10.84489 11.37311,17.10842 21.04424,16.14392 1.43883,-0.0109 2.87759,-0.0524 4.31655,-0.0273 z m 478.368,33.8976 c 7.73484,7.52087 4.47819,19.09064 3.17549,28.44404 -5.03172,26.481667 -21.19377,48.772728 -36.0667,70.579941 -9.18051,3.966115 -12.77632,-8.532807 -11.65876,-15.489009 3.45182,-27.246875 18.95287,-50.690462 34.07864,-72.859802 2.84412,-4.08652 5.74188,-8.58385 10.47133,-10.67517 z"
                   clip-path="url(#clipPath871)"
                   style="fill:#000000" />
              </g>
            </g>
          </g>
        </g>
      </g>
    </g>
  </g>
  <path
     style="fill:#ffffff;fill-opacity:1;stroke-width:0.6469298"
     d="M 67.011908,234.86399 C 57.860519,231.64799 51.547117,223.92278 50.165945,214.25091 49.297853,208.17197 49.29026,63.806325 50.157717,57.806388 51.42809,49.019591 56.493627,42.083574 64.373016,38.342 l 4.205044,-1.99679 h 81.52683 81.52683 l 4.2593,2.09688 c 5.12964,2.525355 9.67256,7.15256 12.09358,12.317968 l 1.73381,3.699187 v 81.526765 81.52675 l -2.09688,4.25938 c -2.52535,5.12971 -7.15249,9.67259 -12.31796,12.09365 l -3.69919,1.73381 -80.86623,0.13473 c -71.691614,0.11944 -81.190711,0.0207 -83.726242,-0.87034 z m 62.497172,-36.50595 c 2.58977,-0.98124 4.71565,-3.10899 6.09735,-6.10274 1.13342,-2.45579 1.19431,-5.58917 1.19431,-61.45834 0,-55.733952 -0.0633,-59.009911 -1.18759,-61.485092 -1.33447,-2.937814 -4.48526,-5.876058 -7.08221,-6.604457 -0.95106,-0.266754 -11.19054,-0.485008 -22.75441,-0.485008 -18.63713,0 -21.255281,0.125951 -23.050686,1.108891 -2.748555,1.504767 -5.225753,4.577513 -6.032692,7.48302 -0.920152,3.31315 -0.920152,116.652146 0,119.965306 0.833005,2.99936 3.168563,5.82894 5.937937,7.19394 1.820932,0.89753 5.150635,1.04712 23.588521,1.05977 13.67274,0.009 22.1296,-0.23583 23.28947,-0.67529 z m 86.6886,-49.81166 c 2.23102,-0.84294 5.18205,-3.56525 6.40744,-5.91082 0.75278,-1.44095 0.91263,-7.87598 0.91263,-36.73904 0,-33.581886 -0.0516,-35.093163 -1.27921,-37.499575 -3.07253,-6.022668 -6.07583,-6.643579 -30.85877,-6.379849 -19.206,0.204382 -19.30585,0.212595 -22.15869,1.822631 -1.91962,1.08336 -3.36133,2.55866 -4.36678,4.468529 l -1.50102,2.851202 v 34.529772 c 0,37.04123 0.002,37.06681 3.313,40.10588 3.71175,3.407 3.89809,3.43109 26.56539,3.43537 13.37683,0.003 21.81388,-0.2488 22.96601,-0.6841 z"
     id="path79"
     inkscape:connector-curvature="0" />
  <path
     style="fill:#ffffff;fill-opacity:1;stroke-width:0.6469298"
     d="m 303.70524,235.99848 c -4.49191,-1.43752 -12.72977,-5.5752 -14.76922,-7.41823 -5.39957,-4.87952 -4.6279,-13.7488 3.85014,-44.25194 11.06483,-39.81017 21.94857,-70.6074 36.00087,-101.870035 2.67413,-5.949218 4.70901,-11.215567 4.52196,-11.702996 -0.27473,-0.715953 -2.25933,-0.827904 -10.32879,-0.582645 -14.89155,0.452608 -23.15487,-1.489296 -27.30007,-6.415594 -1.4778,-1.756256 -1.64703,-2.514005 -1.64703,-7.374799 0,-7.566808 1.02253,-11.824762 3.36517,-14.013121 2.63411,-2.460627 5.53421,-2.839782 12.09941,-1.581862 7.20768,1.381024 23.26217,1.398282 36.44564,0.03918 5.42937,-0.559721 17.44066,-2.281235 26.69176,-3.825586 9.25109,-1.544352 20.02248,-3.112246 23.9364,-3.484209 19.53306,-1.856344 25.80723,-1.550969 33.93931,1.651885 9.25889,3.646658 19.54963,11.132601 20.49799,14.911161 1.52952,6.094089 -4.06717,12.986598 -12.54667,15.451657 -4.34879,1.264226 -6.42727,0.79458 -10.68114,-2.41347 -5.14476,-3.879909 -8.85483,-4.718286 -18.58064,-4.198734 -8.79898,0.470041 -18.67789,1.655833 -27.87321,3.345702 l -5.8513,1.075319 0.39249,1.786979 c 0.31818,1.448663 -0.73624,3.792425 -5.56942,12.379718 -10.57372,18.786693 -21.37379,41.30205 -27.42387,57.17168 -11.54198,30.27514 -20.55754,66.14227 -21.5884,85.88638 -0.57256,10.96641 -1.28142,13.23642 -4.80411,15.38433 -2.62813,1.60247 -7.86077,1.62263 -12.77727,0.0492 z"
     id="path81"
     inkscape:connector-curvature="0" />
  <path
     style="fill:#ffffff;fill-opacity:1;stroke-width:0.6469298"
     d="m 607.4706,236.82279 c -8.53348,-1.88636 -17.19084,-6.20976 -22.95182,-11.46193 l -2.7154,-2.47556 -0.34982,-9.8161 c -0.90411,-25.37031 4.46486,-46.56459 20.88198,-82.4326 1.34323,-2.9347 2.25775,-5.52031 2.03227,-5.7458 -0.2255,-0.22549 -2.96748,0.18551 -6.09329,0.91333 -3.12581,0.72783 -7.86669,1.51557 -10.53527,1.75054 -10.48789,0.92347 -15.71673,3.65812 -16.51716,8.63837 -0.60772,3.78123 -2.70928,11.59733 -5.08125,18.89809 -7.35942,22.6519 -17.73591,41.96218 -30.60298,56.95107 -8.30621,9.67595 -14.06993,14.70243 -20.93982,18.26142 -8.38234,4.34252 -11.83261,4.2301 -23.75348,-0.77394 -12.74166,-5.34858 -22.9856,-15.45589 -26.7692,-26.41217 -1.40381,-4.06504 -1.51704,-5.40689 -1.51704,-17.97844 0,-12.34904 0.1357,-14.02713 1.49087,-18.4375 3.03167,-9.86646 6.86045,-19.3304 11.50701,-28.44292 2.6246,-5.14716 4.53602,-9.59446 4.2476,-9.88287 -0.2884,-0.28841 -1.97122,-0.69574 -3.73959,-0.90518 -3.00152,-0.35548 -3.70804,-0.12467 -10.62989,3.4727 -15.02302,7.80765 -26.58594,15.96201 -37.40377,26.37779 -17.81609,17.15392 -28.17806,35.13314 -34.98899,60.70994 -1.66943,6.26915 -2.65096,8.20011 -6.03361,11.86985 -3.38348,3.67064 -5.46033,4.72832 -9.28452,4.72832 -4.30029,0 -7.92408,-1.97407 -12.39255,-6.75089 -6.98529,-7.46729 -8.78933,-13.7719 -6.02359,-21.05076 0.67548,-1.7777 3.7271,-7.0225 6.78138,-11.65512 3.05428,-4.63261 6.1075,-9.51307 6.78493,-10.84546 3.32513,-6.53999 18.53285,-54.88248 21.81136,-69.33425 1.89802,-8.36648 1.95666,-11.40654 0.2692,-13.95453 -1.86706,-2.819162 -1.6277,-4.707809 0.89862,-7.090439 4.4907,-4.235275 14.73535,-5.633556 21.81766,-2.977857 4.39523,1.648112 5.07809,2.35923 7.81417,8.137588 2.05047,4.330388 2.14425,4.867768 2.2534,12.912568 0.0626,4.61678 0.36667,8.47841 0.67562,8.58138 0.30894,0.10299 3.30404,-1.74643 6.65577,-4.10981 13.08108,-9.22378 22.89589,-14.63931 30.9837,-17.095905 3.94122,-1.197111 5.5453,-1.361037 9.67204,-0.988405 5.64053,0.509321 13.51793,2.93341 17.04921,5.2465 1.31892,0.86394 2.65015,1.64777 2.9583,1.74184 0.30814,0.0941 2.12244,-1.72122 4.03177,-4.03399 8.70043,-10.538819 15.94966,-18.274295 19.06096,-20.33945 11.87617,-7.882957 25.79566,-7.794159 37.47152,0.23904 2.41555,1.661943 3.48228,3.171709 6.54546,9.263912 3.57135,7.102902 5.77579,10.173508 8.40017,11.700828 0.90591,0.52721 7.1131,0.75299 20.70176,0.75299 10.67434,0 19.89128,0.23948 20.48209,0.53218 1.23255,0.61064 0.50852,1.83783 15.39034,-26.085906 12.25124,-22.987808 25.26657,-49.275836 27.80411,-56.158029 2.66266,-7.221496 4.85162,-11.3550987 7.67014,-14.4841959 3.86085,-4.2862731 6.30702,-5.0321466 17.06028,-5.201924 8.2341,-0.1300038 9.60739,0.00556 12.19063,1.203364 1.60115,0.7424296 3.42801,1.9326654 4.05969,2.6449684 1.62408,1.8313523 3.70346,8.0892995 3.70346,11.1456425 0,5.901103 -0.18507,6.224135 -26.52352,46.294253 -25.68924,39.082437 -34.10347,53.079127 -44.33543,73.749997 -7.3174,14.7828 -18.23369,40.78198 -20.70768,49.31922 -3.78834,13.07277 -3.70306,27.34197 0.16342,27.34197 2.52781,0 8.80998,-5.26481 21.21133,-17.77628 11.39661,-11.4978 13.4855,-13.31733 17.52759,-15.26744 l 4.589,-2.21396 1.47392,-4.52851 c 1.94475,-5.97512 9.45891,-24.7962 14.01921,-35.11457 10.21842,-23.12074 33.12989,-66.475399 53.60533,-101.435702 2.93295,-5.007805 6.28277,-11.703529 7.44405,-14.879386 2.7097,-7.410505 4.0978,-10.18066 7.15111,-14.2711432 3.56327,-4.7736577 6.23116,-5.8326557 15.87905,-6.3030684 8.32399,-0.405862 13.43798,0.3951893 16.86713,2.6420553 2.72306,1.7842204 4.94291,7.4866863 4.93297,12.6720963 -0.011,5.748757 -0.58471,6.823061 -16.99889,31.832265 -44.80329,68.263793 -51.33444,79.750153 -67.05266,117.925883 -2.9718,7.21779 -5.9988,14.93243 -6.72667,17.14364 -3.09764,9.41052 -4.33304,25.11086 -2.21393,28.13631 0.55389,0.79079 1.54396,1.43781 2.20015,1.43781 2.16927,0 8.9241,-5.77181 21.53716,-18.40291 7.93514,-7.94648 13.65685,-13.13373 15.7689,-14.29592 l 3.31483,-1.82405 0.75015,-5.36234 c 1.64346,-11.748 4.81306,-21.20481 11.67555,-34.83518 5.44533,-10.81558 11.57051,-20.86665 16.68465,-27.37855 1.86644,-2.37656 5.5027,-7.08663 8.08058,-10.46684 9.98066,-13.087024 19.87415,-21.801499 27.96932,-24.636209 8.05171,-2.819495 18.72651,-1.276218 26.66567,3.855106 4.55861,2.946377 6.43557,5.290521 8.86949,11.077153 4.69087,11.15248 5.69771,11.83106 17.11387,11.5341 20.53851,-0.53426 27.35586,-0.27484 32.11808,1.22216 9.64166,3.03085 14.15025,8.41942 10.10646,12.079 -1.63037,1.47547 -12.44199,6.8643 -13.77185,6.8643 -0.63762,0 -5.605,1.14209 -11.03862,2.53797 -6.71349,1.72467 -12.10587,2.68572 -16.82752,2.99905 -4.00472,0.26575 -7.21694,0.78488 -7.58257,1.22544 -0.34889,0.42039 -1.6704,4.67485 -2.93669,9.45434 -9.82288,37.07574 -22.87424,61.57174 -43.44584,81.54316 -9.55961,9.28071 -16.53656,12.60085 -25.40115,12.08768 -3.84693,-0.22269 -6.007,-0.75996 -9.35581,-2.32706 -9.17045,-4.29137 -19.47783,-12.12968 -23.4668,-17.84546 l -1.30187,-1.86546 -3.15107,3.48278 c -15.83985,17.50731 -29.52181,25.1477 -41.66044,23.26432 -12.00078,-1.86198 -24.40982,-8.9479 -30.74835,-17.55818 l -2.75284,-3.73946 -3.48602,3.56033 c -13.98883,14.28699 -26.87064,19.98909 -39.06718,17.293 z m 155.22034,-32.03426 c 0.96194,-0.75666 4.58975,-5.6329 8.0618,-10.83607 22.80156,-34.17024 30.57352,-53.33174 30.73762,-75.78249 l 0.0592,-8.09848 -2.26425,-2.72593 c -3.82157,-4.60077 -5.01989,-3.88089 -13.73067,8.24855 -15.25753,21.24555 -26.74041,43.19075 -31.3806,59.97222 -1.42898,5.16797 -1.75527,7.71159 -1.76738,13.77778 -0.0128,6.40537 0.19129,7.88828 1.46788,10.66628 2.79247,6.07671 5.38164,7.47994 8.81641,4.77814 z m -259.57431,-0.72676 c 1.3242,-1.05044 13.48865,-19.21577 18.84862,-28.14688 10.45173,-17.41535 15.88803,-31.55514 18.2396,-47.4412 1.7055,-11.52152 0.88959,-17.52086 -3.10816,-22.85413 -0.91289,-1.21787 -0.97284,-1.21468 -3.21499,0.17104 -3.03678,1.87684 -5.39451,4.86558 -13.85785,17.56667 -12.74939,19.13325 -19.98651,32.78545 -24.34884,45.93202 -5.71328,17.21786 -5.95389,27.86499 -0.75431,33.37816 1.68051,1.78186 2.56503,2.20298 4.6271,2.20298 1.40217,0 3.00815,-0.3639 3.56883,-0.80866 z"
     id="path83"
     inkscape:connector-curvature="0" />
</svg>
