<?xml version="1.0" encoding="UTF-8" standalone="no"?>
<svg
   xmlns:dc="http://purl.org/dc/elements/1.1/"
   xmlns:cc="http://creativecommons.org/ns#"
   xmlns:rdf="http://www.w3.org/1999/02/22-rdf-syntax-ns#"
   xmlns:svg="http://www.w3.org/2000/svg"
   xmlns="http://www.w3.org/2000/svg"
   xmlns:sodipodi="http://sodipodi.sourceforge.net/DTD/sodipodi-0.dtd"
   xmlns:inkscape="http://www.inkscape.org/namespaces/inkscape"
   id="svg26"
   version="1.1"
   viewBox="0 0 885 272"
   height="272px"
   width="885px"
   sodipodi:docname="trollo-logo-black.svg"
   inkscape:version="0.92.3 (2405546, 2018-03-11)">
  <sodipodi:namedview
     pagecolor="#ffffff"
     bordercolor="#666666"
     borderopacity="1"
     objecttolerance="10"
     gridtolerance="10"
     guidetolerance="10"
     inkscape:pageopacity="0"
     inkscape:pageshadow="2"
     inkscape:window-width="1853"
     inkscape:window-height="1025"
     id="namedview23"
     showgrid="false"
     inkscape:zoom="2.1860386"
     inkscape:cx="441.46912"
     inkscape:cy="97.740906"
     inkscape:window-x="67"
     inkscape:window-y="27"
     inkscape:window-maximized="1"
     inkscape:current-layer="svg26" />
  <metadata
     id="metadata30">
    <rdf:RDF>
      <cc:Work
         rdf:about="">
        <dc:format>image/svg+xml</dc:format>
        <dc:type
           rdf:resource="http://purl.org/dc/dcmitype/StillImage" />
        <dc:title>trollo-logo</dc:title>
      </cc:Work>
    </rdf:RDF>
  </metadata>
  <!-- Generator: Sketch 41 (35326) - http://www.bohemiancoding.com/sketch -->
  <title
     id="title2">trollo-logo</title>
  <desc
     id="desc4">Created with Sketch.</desc>
  <defs
     id="defs11">
    <linearGradient
       id="linearGradient-1"
       y2="100%"
       x2="50%"
       y1="0%"
       x1="50%">
      <stop
         id="stop6"
         offset="0%"
         stop-color="#0079BF" />
      <stop
         id="stop8"
         offset="100%"
         stop-color="#0079BF" />
    </linearGradient>
    <clipPath
       id="clipPath871"
       clipPathUnits="userSpaceOnUse">
      <rect
         y="-180.5625"
         x="662.5"
         height="157.8125"
         width="187.5"
         id="rect873"
         style="opacity:0.17600002;fill:#ffffff;fill-opacity:1;stroke:#0079bf;stroke-width:21.20000076;stroke-miterlimit:4;stroke-dasharray:none;stroke-opacity:1;paint-order:stroke fill markers" />
    </clipPath>
  </defs>
  <path
     style="fill:#ffffff;fill-opacity:1;stroke-width:0.6469298"
     d="M 67.011908,234.86399 C 57.860519,231.64799 51.547117,223.92278 50.165945,214.25091 49.297853,208.17197 49.29026,63.806325 50.157717,57.806388 51.42809,49.019591 56.493627,42.083574 64.373016,38.342 l 4.205044,-1.99679 h 81.52683 81.52683 l 4.2593,2.09688 c 5.12964,2.525355 9.67256,7.15256 12.09358,12.317968 l 1.73381,3.699187 v 81.526765 81.52675 l -2.09688,4.25938 c -2.52535,5.12971 -7.15249,9.67259 -12.31796,12.09365 l -3.69919,1.73381 -80.86623,0.13473 c -71.691614,0.11944 -81.190711,0.0207 -83.726242,-0.87034 z m 62.497172,-36.50595 c 2.58977,-0.98124 4.71565,-3.10899 6.09735,-6.10274 1.13342,-2.45579 1.19431,-5.58917 1.19431,-61.45834 0,-55.733952 -0.0633,-59.009911 -1.18759,-61.485092 -1.33447,-2.937814 -4.48526,-5.876058 -7.08221,-6.604457 -0.95106,-0.266754 -11.19054,-0.485008 -22.75441,-0.485008 -18.63713,0 -21.255281,0.125951 -23.050686,1.108891 -2.748555,1.504767 -5.225753,4.577513 -6.032692,7.48302 -0.920152,3.31315 -0.920152,116.652146 0,119.965306 0.833005,2.99936 3.168563,5.82894 5.937937,7.19394 1.820932,0.89753 5.150635,1.04712 23.588521,1.05977 13.67274,0.009 22.1296,-0.23583 23.28947,-0.67529 z m 86.6886,-49.81166 c 2.23102,-0.84294 5.18205,-3.56525 6.40744,-5.91082 0.75278,-1.44095 0.91263,-7.87598 0.91263,-36.73904 0,-33.581886 -0.0516,-35.093163 -1.27921,-37.499575 -3.07253,-6.022668 -6.07583,-6.643579 -30.85877,-6.379849 -19.206,0.204382 -19.30585,0.212595 -22.15869,1.822631 -1.91962,1.08336 -3.36133,2.55866 -4.36678,4.468529 l -1.50102,2.851202 v 34.529772 c 0,37.04123 0.002,37.06681 3.313,40.10588 3.71175,3.407 3.89809,3.43109 26.56539,3.43537 13.37683,0.003 21.81388,-0.2488 22.96601,-0.6841 z"
     id="path79"
     inkscape:connector-curvature="0" />
  <path
     style="fill:#ffffff;fill-opacity:1;stroke-width:0.6469298"
     d="m 303.70524,235.99848 c -4.49191,-1.43752 -12.72977,-5.5752 -14.76922,-7.41823 -5.39957,-4.87952 -4.6279,-13.7488 3.85014,-44.25194 11.06483,-39.81017 21.94857,-70.6074 36.00087,-101.870035 2.67413,-5.949218 4.70901,-11.215567 4.52196,-11.702996 -0.27473,-0.715953 -2.25933,-0.827904 -10.32879,-0.582645 -14.89155,0.452608 -23.15487,-1.489296 -27.30007,-6.415594 -1.4778,-1.756256 -1.64703,-2.514005 -1.64703,-7.374799 0,-7.566808 1.02253,-11.824762 3.36517,-14.013121 2.63411,-2.460627 5.53421,-2.839782 12.09941,-1.581862 7.20768,1.381024 23.26217,1.398282 36.44564,0.03918 5.42937,-0.559721 17.44066,-2.281235 26.69176,-3.825586 9.25109,-1.544352 20.02248,-3.112246 23.9364,-3.484209 19.53306,-1.856344 25.80723,-1.550969 33.93931,1.651885 9.25889,3.646658 19.54963,11.132601 20.49799,14.911161 1.52952,6.094089 -4.06717,12.986598 -12.54667,15.451657 -4.34879,1.264226 -6.42727,0.79458 -10.68114,-2.41347 -5.14476,-3.879909 -8.85483,-4.718286 -18.58064,-4.198734 -8.79898,0.470041 -18.67789,1.655833 -27.87321,3.345702 l -5.8513,1.075319 0.39249,1.786979 c 0.31818,1.448663 -0.73624,3.792425 -5.56942,12.379718 -10.57372,18.786693 -21.37379,41.30205 -27.42387,57.17168 -11.54198,30.27514 -20.55754,66.14227 -21.5884,85.88638 -0.57256,10.96641 -1.28142,13.23642 -4.80411,15.38433 -2.62813,1.60247 -7.86077,1.62263 -12.77727,0.0492 z"
     id="path81"
     inkscape:connector-curvature="0" />
  <path
     style="fill:#ffffff;fill-opacity:1;stroke-width:0.6506784"
     d="m 609.29078,239.52489 c -8.53348,-1.90829 -17.19084,-6.28194 -22.95182,-11.59515 l -2.7154,-2.50433 -0.34982,-9.93019 c -0.90411,-25.66517 4.46486,-47.10578 20.88198,-83.39066 1.34323,-2.9688 2.25775,-5.58447 2.03227,-5.81258 -0.2255,-0.2281 -2.96748,0.18767 -6.09329,0.92394 -3.12581,0.7363 -7.86669,1.53319 -10.53527,1.7709 -10.48789,0.93419 -15.71673,3.70064 -16.51716,8.73876 -0.60772,3.82518 -2.70928,11.73212 -5.08125,19.11773 -7.35942,22.91517 -17.73591,42.44988 -30.60298,57.61297 -8.30621,9.78841 -14.06993,14.87331 -20.93982,18.47366 -8.38234,4.393 -11.83261,4.27926 -23.75348,-0.78293 -12.74166,-5.41074 -22.9856,-15.63553 -26.7692,-26.71914 -1.40381,-4.11229 -1.51704,-5.46973 -1.51704,-18.18739 0,-12.49257 0.1357,-14.19016 1.49087,-18.65179 3.03167,-9.98113 6.86045,-19.55506 11.50701,-28.77349 2.6246,-5.20698 4.53602,-9.70596 4.2476,-9.99773 -0.2884,-0.29176 -1.97122,-0.70382 -3.73959,-0.9157 -3.00152,-0.35961 -3.70804,-0.12612 -10.62989,3.51306 -15.02302,7.89839 -26.58594,16.14752 -37.40377,26.68436 -17.81609,17.35329 -28.17806,35.54146 -34.98899,61.41553 -1.66943,6.34201 -2.65096,8.29542 -6.03361,12.0078 -3.38348,3.7133 -5.46033,4.78328 -9.28452,4.78328 -4.30029,0 -7.92408,-1.99702 -12.39255,-6.82935 -6.98529,-7.55408 -8.78933,-13.93196 -6.02359,-21.29543 0.67548,-1.79835 3.7271,-7.10411 6.78138,-11.79057 3.05428,-4.68646 6.1075,-9.62363 6.78493,-10.9715 3.32513,-6.61601 18.53285,-55.52036 21.81136,-70.14009 1.89802,-8.46371 1.95666,-11.5391 0.2692,-14.1167 -1.86706,-2.851933 -1.6277,-4.76253 0.89862,-7.172861 4.4907,-4.284492 14.73535,-5.699023 21.81766,-3.012462 4.39523,1.667274 5.07809,2.386644 7.81417,8.232173 2.05047,4.38071 2.14425,4.92434 2.2534,13.06263 0.0626,4.67045 0.36667,8.57695 0.67562,8.68112 0.30894,0.10414 3.30404,-1.76673 6.65577,-4.15758 13.08108,-9.33097 22.89589,-14.80945 30.9837,-17.29459 3.94122,-1.211029 5.5453,-1.376857 9.67204,-0.999892 5.64053,0.515242 13.51793,2.967502 17.04921,5.307472 1.31892,0.87399 2.65015,1.66692 2.9583,1.76209 0.30814,0.0952 2.12244,-1.74123 4.03177,-4.08088 8.70043,-10.661308 15.94966,-18.48669 19.06096,-20.57584 11.87617,-7.974582 25.79566,-7.884746 37.47152,0.241819 2.41555,1.681255 3.48228,3.208575 6.54546,9.371578 3.57135,7.185446 5.77579,10.291743 8.40017,11.836823 0.90591,0.53334 7.1131,0.76173 20.70176,0.76173 10.67434,0 19.89128,0.24227 20.48209,0.53837 1.23255,0.61774 0.50852,1.85919 15.39034,-26.389086 12.25124,-23.254972 25.26657,-49.848532 27.80411,-56.810712 2.66266,-7.305427 4.85162,-11.487072 7.67014,-14.6525361 3.86085,-4.3360893 6.30702,-5.0906328 17.06028,-5.2623821 8.2341,-0.1315151 9.60739,0.00572 12.19063,1.21735 1.60115,0.7510577 3.42801,1.955128 4.05969,2.6757094 1.62408,1.8526365 3.70346,8.1833148 3.70346,11.2751808 0,5.969687 -0.18507,6.296473 -26.52352,46.832296 -25.68924,39.53667 -34.10347,53.69604 -44.33543,74.60715 -7.3174,14.9546 -18.23369,41.25596 -20.70768,49.89242 -3.78834,13.22471 -3.70306,27.65975 0.16342,27.65975 2.52781,0 8.80998,-5.326 21.21133,-17.98289 11.39661,-11.63143 13.4855,-13.4721 17.52759,-15.44488 l 4.589,-2.23969 1.47392,-4.58114 c 1.94475,-6.04456 9.45891,-25.08439 14.01921,-35.52268 10.21842,-23.38946 33.12989,-67.248 53.60533,-102.614623 2.93295,-5.066009 6.28277,-11.839552 7.44405,-15.05232 2.7097,-7.496632 4.0978,-10.298983 7.15111,-14.4370072 3.56327,-4.8291385 6.23116,-5.9004447 15.87905,-6.3763246 8.32399,-0.4105789 13.43798,0.3997823 16.86713,2.6727629 2.72306,1.804956 4.94291,7.5736979 4.93297,12.8193739 -0.011,5.815571 -0.58471,6.902362 -16.99889,32.202231 -44.80329,69.057187 -51.33444,80.677037 -67.05266,119.296457 -2.9718,7.30168 -5.9988,15.10598 -6.72667,17.34289 -3.09764,9.51989 -4.33304,25.4027 -2.21393,28.46332 0.55389,0.79998 1.54396,1.45452 2.20015,1.45452 2.16927,0 8.9241,-5.83889 21.53716,-18.6168 7.93514,-8.03884 13.65685,-13.28637 15.7689,-14.46207 l 3.31483,-1.84525 0.75015,-5.42466 c 1.64346,-11.88454 4.81306,-21.45126 11.67555,-35.24004 5.44533,-10.94129 11.57051,-21.10917 16.68465,-27.69676 1.86644,-2.40418 5.5027,-7.16899 8.08058,-10.58848 9.98066,-13.23913 19.87415,-22.054891 27.96932,-24.922553 8.05171,-2.852252 18.72651,-1.291055 26.66567,3.899922 4.55861,2.980611 6.43557,5.352008 8.86949,11.205898 4.69087,11.282093 5.69771,11.968553 17.11387,11.668153 20.53851,-0.54047 27.35586,-0.27805 32.11808,1.23636 9.64166,3.06607 14.15025,8.51727 10.10646,12.21938 -1.63037,1.49262 -12.44199,6.94409 -13.77185,6.94409 -0.63762,0 -5.605,1.15536 -11.03862,2.56746 -6.71349,1.74472 -12.10587,2.71693 -16.82752,3.03391 -4.00472,0.26883 -7.21694,0.79399 -7.58257,1.23968 -0.34889,0.42527 -1.6704,4.72918 -2.93669,9.56422 -9.82288,37.50665 -22.87424,62.28734 -43.44584,82.49088 -9.55961,9.38857 -16.53656,12.7473 -25.40115,12.22817 -3.84693,-0.22528 -6.007,-0.76879 -9.35581,-2.35411 -9.17045,-4.34125 -19.47783,-12.27066 -23.4668,-18.05287 l -1.30187,-1.88713 -3.15107,3.52325 c -15.83985,17.71079 -29.52181,25.43998 -41.66044,23.5347 -12.00078,-1.88361 -24.40982,-9.05189 -30.74835,-17.76224 l -2.75284,-3.78292 -3.48602,3.60171 c -13.98883,14.45303 -26.87064,20.22141 -39.06718,17.49399 z m 155.22034,-32.40658 c 0.96194,-0.76545 4.58975,-5.69837 8.0618,-10.96201 22.80156,-34.56737 30.57352,-53.95158 30.73762,-76.66326 l 0.0592,-8.1926 -2.26425,-2.75761 c -3.82157,-4.65425 -5.01989,-3.92599 -13.73067,8.34442 -15.25753,21.49247 -26.74041,43.69272 -31.3806,60.66923 -1.42898,5.22804 -1.75527,7.80121 -1.76738,13.93791 -0.0128,6.47982 0.19129,7.97996 1.46788,10.79024 2.79247,6.14735 5.38164,7.56688 8.81641,4.83368 z M 504.93681,206.3831 c 1.3242,-1.06264 13.48865,-19.4391 18.84862,-28.47401 10.45173,-17.61775 15.88803,-31.92189 18.2396,-47.99257 1.7055,-11.65543 0.88959,-17.7245 -3.10816,-23.11975 -0.91289,-1.23203 -0.97284,-1.2288 -3.21499,0.17302 -3.03678,1.89866 -5.39451,4.92213 -13.85785,17.77083 -12.74939,19.35563 -19.98651,33.16651 -24.34884,46.46587 -5.71328,17.41797 -5.95389,28.18885 -0.75431,33.76608 1.68051,1.80257 2.56503,2.22859 4.6271,2.22859 1.40217,0 3.00815,-0.36813 3.56883,-0.81806 z"
     id="path83"
     inkscape:connector-curvature="0" />
</svg>
